<?xml version="1.0" encoding="utf-8" standalone="no"?>
<!DOCTYPE svg PUBLIC "-//W3C//DTD SVG 1.1//EN"
  "http://www.w3.org/Graphics/SVG/1.1/DTD/svg11.dtd">
<svg xmlns:xlink="http://www.w3.org/1999/xlink" width="490.426406pt" height="213.843875pt" viewBox="0 0 490.426406 213.843875" xmlns="http://www.w3.org/2000/svg" version="1.1">
 <defs>
  <style type="text/css">*{stroke-linejoin: round; stroke-linecap: butt}</style>
 </defs>
 <g id="figure_1">
  <g id="patch_1">
   <path d="M 0 213.843875 
L 490.426406 213.843875 
L 490.426406 0 
L 0 0 
L 0 213.843875 
z
" style="fill: none"/>
  </g>
  <g id="axes_1">
   <g id="patch_2">
    <path d="M 43.063906 176.581531 
L 478.303906 176.581531 
L 478.303906 21.349531 
L 43.063906 21.349531 
L 43.063906 176.581531 
z
" style="fill: none"/>
   </g>
   <g id="matplotlib.axis_1">
    <g id="xtick_1">
     <g id="line2d_1">
      <defs>
       <path id="m353b53b2a7" d="M 0 0 
L 0 3.5 
" style="stroke: #c3c2b7; stroke-width: 0.8"/>
      </defs>
      <g>
       <use xlink:href="#m353b53b2a7" x="43.063906" y="176.581531" style="fill: #c3c2b7; stroke: #c3c2b7; stroke-width: 0.8"/>
      </g>
     </g>
     <g id="text_1">
      <text style="font-size: 10px; font-family: 'DejaVu Sans', 'Segoe UI', 'Helvetica Neue', Arial, 'Noto Sans CJK JP', 'Hiragino Sans', 'Yu Gothic', sans-serif, 'Noto Sans CJK JP'; text-anchor: middle; fill: #c3c2b7" x="43.063906" y="191.179188" transform="rotate(-0 43.063906 191.179188)">0</text>
     </g>
    </g>
    <g id="xtick_2">
     <g id="line2d_2">
      <g>
       <use xlink:href="#m353b53b2a7" x="115.603906" y="176.581531" style="fill: #c3c2b7; stroke: #c3c2b7; stroke-width: 0.8"/>
      </g>
     </g>
     <g id="text_2">
      <text style="font-size: 10px; font-family: 'DejaVu Sans', 'Segoe UI', 'Helvetica Neue', Arial, 'Noto Sans CJK JP', 'Hiragino Sans', 'Yu Gothic', sans-serif, 'Noto Sans CJK JP'; text-anchor: middle; fill: #c3c2b7" x="115.603906" y="191.179188" transform="rotate(-0 115.603906 191.179188)">10</text>
     </g>
    </g>
    <g id="xtick_3">
     <g id="line2d_3">
      <g>
       <use xlink:href="#m353b53b2a7" x="188.143906" y="176.581531" style="fill: #c3c2b7; stroke: #c3c2b7; stroke-width: 0.8"/>
      </g>
     </g>
     <g id="text_3">
      <text style="font-size: 10px; font-family: 'DejaVu Sans', 'Segoe UI', 'Helvetica Neue', Arial, 'Noto Sans CJK JP', 'Hiragino Sans', 'Yu Gothic', sans-serif, 'Noto Sans CJK JP'; text-anchor: middle; fill: #c3c2b7" x="188.143906" y="191.179188" transform="rotate(-0 188.143906 191.179188)">20</text>
     </g>
    </g>
    <g id="xtick_4">
     <g id="line2d_4">
      <g>
       <use xlink:href="#m353b53b2a7" x="260.683906" y="176.581531" style="fill: #c3c2b7; stroke: #c3c2b7; stroke-width: 0.8"/>
      </g>
     </g>
     <g id="text_4">
      <text style="font-size: 10px; font-family: 'DejaVu Sans', 'Segoe UI', 'Helvetica Neue', Arial, 'Noto Sans CJK JP', 'Hiragino Sans', 'Yu Gothic', sans-serif, 'Noto Sans CJK JP'; text-anchor: middle; fill: #c3c2b7" x="260.683906" y="191.179188" transform="rotate(-0 260.683906 191.179188)">30</text>
     </g>
    </g>
    <g id="xtick_5">
     <g id="line2d_5">
      <g>
       <use xlink:href="#m353b53b2a7" x="333.223906" y="176.581531" style="fill: #c3c2b7; stroke: #c3c2b7; stroke-width: 0.8"/>
      </g>
     </g>
     <g id="text_5">
      <text style="font-size: 10px; font-family: 'DejaVu Sans', 'Segoe UI', 'Helvetica Neue', Arial, 'Noto Sans CJK JP', 'Hiragino Sans', 'Yu Gothic', sans-serif, 'Noto Sans CJK JP'; text-anchor: middle; fill: #c3c2b7" x="333.223906" y="191.179188" transform="rotate(-0 333.223906 191.179188)">40</text>
     </g>
    </g>
    <g id="xtick_6">
     <g id="line2d_6">
      <g>
       <use xlink:href="#m353b53b2a7" x="405.763906" y="176.581531" style="fill: #c3c2b7; stroke: #c3c2b7; stroke-width: 0.8"/>
      </g>
     </g>
     <g id="text_6">
      <text style="font-size: 10px; font-family: 'DejaVu Sans', 'Segoe UI', 'Helvetica Neue', Arial, 'Noto Sans CJK JP', 'Hiragino Sans', 'Yu Gothic', sans-serif, 'Noto Sans CJK JP'; text-anchor: middle; fill: #c3c2b7" x="405.763906" y="191.179188" transform="rotate(-0 405.763906 191.179188)">50</text>
     </g>
    </g>
    <g id="xtick_7">
     <g id="line2d_7">
      <g>
       <use xlink:href="#m353b53b2a7" x="478.303906" y="176.581531" style="fill: #c3c2b7; stroke: #c3c2b7; stroke-width: 0.8"/>
      </g>
     </g>
     <g id="text_7">
      <text style="font-size: 10px; font-family: 'DejaVu Sans', 'Segoe UI', 'Helvetica Neue', Arial, 'Noto Sans CJK JP', 'Hiragino Sans', 'Yu Gothic', sans-serif, 'Noto Sans CJK JP'; text-anchor: middle; fill: #c3c2b7" x="478.303906" y="191.179188" transform="rotate(-0 478.303906 191.179188)">60</text>
     </g>
    </g>
    <g id="text_8">
     <text style="font-size: 10px; font-family: 'DejaVu Sans', 'Segoe UI', 'Helvetica Neue', Arial, 'Noto Sans CJK JP', 'Hiragino Sans', 'Yu Gothic', sans-serif, 'Noto Sans CJK JP'; text-anchor: middle; fill: #c3c2b7" x="260.683906" y="205.681531" transform="rotate(-0 260.683906 205.681531)">C_w = chi phí kỳ vọng khi gửi một câu trả lời sai (USD, giả định)</text>
    </g>
   </g>
   <g id="matplotlib.axis_2">
    <g id="ytick_1">
     <g id="line2d_8">
      <path d="M 43.063906 176.581531 
L 478.303906 176.581531 
" clip-path="url(#p987b81bdee)" style="fill: none; stroke: #3a3a38; stroke-width: 0.8; stroke-linecap: square"/>
     </g>
     <g id="line2d_9">
      <defs>
       <path id="m3f667d9126" d="M 0 0 
L -3.5 0 
" style="stroke: #c3c2b7; stroke-width: 0.8"/>
      </defs>
      <g>
       <use xlink:href="#m3f667d9126" x="43.063906" y="176.581531" style="fill: #c3c2b7; stroke: #c3c2b7; stroke-width: 0.8"/>
      </g>
     </g>
     <g id="text_9">
      <text style="font-size: 10px; font-family: 'DejaVu Sans', 'Segoe UI', 'Helvetica Neue', Arial, 'Noto Sans CJK JP', 'Hiragino Sans', 'Yu Gothic', sans-serif, 'Noto Sans CJK JP'; text-anchor: end; fill: #c3c2b7" x="36.063906" y="180.380359" transform="rotate(-0 36.063906 180.380359)">0.0</text>
     </g>
    </g>
    <g id="ytick_2">
     <g id="line2d_10">
      <path d="M 43.063906 146.143884 
L 478.303906 146.143884 
" clip-path="url(#p987b81bdee)" style="fill: none; stroke: #3a3a38; stroke-width: 0.8; stroke-linecap: square"/>
     </g>
     <g id="line2d_11">
      <g>
       <use xlink:href="#m3f667d9126" x="43.063906" y="146.143884" style="fill: #c3c2b7; stroke: #c3c2b7; stroke-width: 0.8"/>
      </g>
     </g>
     <g id="text_10">
      <text style="font-size: 10px; font-family: 'DejaVu Sans', 'Segoe UI', 'Helvetica Neue', Arial, 'Noto Sans CJK JP', 'Hiragino Sans', 'Yu Gothic', sans-serif, 'Noto Sans CJK JP'; text-anchor: end; fill: #c3c2b7" x="36.063906" y="149.942712" transform="rotate(-0 36.063906 149.942712)">0.2</text>
     </g>
    </g>
    <g id="ytick_3">
     <g id="line2d_12">
      <path d="M 43.063906 115.706237 
L 478.303906 115.706237 
" clip-path="url(#p987b81bdee)" style="fill: none; stroke: #3a3a38; stroke-width: 0.8; stroke-linecap: square"/>
     </g>
     <g id="line2d_13">
      <g>
       <use xlink:href="#m3f667d9126" x="43.063906" y="115.706237" style="fill: #c3c2b7; stroke: #c3c2b7; stroke-width: 0.8"/>
      </g>
     </g>
     <g id="text_11">
      <text style="font-size: 10px; font-family: 'DejaVu Sans', 'Segoe UI', 'Helvetica Neue', Arial, 'Noto Sans CJK JP', 'Hiragino Sans', 'Yu Gothic', sans-serif, 'Noto Sans CJK JP'; text-anchor: end; fill: #c3c2b7" x="36.063906" y="119.505065" transform="rotate(-0 36.063906 119.505065)">0.4</text>
     </g>
    </g>
    <g id="ytick_4">
     <g id="line2d_14">
      <path d="M 43.063906 85.26859 
L 478.303906 85.26859 
" clip-path="url(#p987b81bdee)" style="fill: none; stroke: #3a3a38; stroke-width: 0.8; stroke-linecap: square"/>
     </g>
     <g id="line2d_15">
      <g>
       <use xlink:href="#m3f667d9126" x="43.063906" y="85.26859" style="fill: #c3c2b7; stroke: #c3c2b7; stroke-width: 0.8"/>
      </g>
     </g>
     <g id="text_12">
      <text style="font-size: 10px; font-family: 'DejaVu Sans', 'Segoe UI', 'Helvetica Neue', Arial, 'Noto Sans CJK JP', 'Hiragino Sans', 'Yu Gothic', sans-serif, 'Noto Sans CJK JP'; text-anchor: end; fill: #c3c2b7" x="36.063906" y="89.067418" transform="rotate(-0 36.063906 89.067418)">0.6</text>
     </g>
    </g>
    <g id="ytick_5">
     <g id="line2d_16">
      <path d="M 43.063906 54.830943 
L 478.303906 54.830943 
" clip-path="url(#p987b81bdee)" style="fill: none; stroke: #3a3a38; stroke-width: 0.8; stroke-linecap: square"/>
     </g>
     <g id="line2d_17">
      <g>
       <use xlink:href="#m3f667d9126" x="43.063906" y="54.830943" style="fill: #c3c2b7; stroke: #c3c2b7; stroke-width: 0.8"/>
      </g>
     </g>
     <g id="text_13">
      <text style="font-size: 10px; font-family: 'DejaVu Sans', 'Segoe UI', 'Helvetica Neue', Arial, 'Noto Sans CJK JP', 'Hiragino Sans', 'Yu Gothic', sans-serif, 'Noto Sans CJK JP'; text-anchor: end; fill: #c3c2b7" x="36.063906" y="58.629771" transform="rotate(-0 36.063906 58.629771)">0.8</text>
     </g>
    </g>
    <g id="ytick_6">
     <g id="line2d_18">
      <path d="M 43.063906 24.393296 
L 478.303906 24.393296 
" clip-path="url(#p987b81bdee)" style="fill: none; stroke: #3a3a38; stroke-width: 0.8; stroke-linecap: square"/>
     </g>
     <g id="line2d_19">
      <g>
       <use xlink:href="#m3f667d9126" x="43.063906" y="24.393296" style="fill: #c3c2b7; stroke: #c3c2b7; stroke-width: 0.8"/>
      </g>
     </g>
     <g id="text_14">
      <text style="font-size: 10px; font-family: 'DejaVu Sans', 'Segoe UI', 'Helvetica Neue', Arial, 'Noto Sans CJK JP', 'Hiragino Sans', 'Yu Gothic', sans-serif, 'Noto Sans CJK JP'; text-anchor: end; fill: #c3c2b7" x="36.063906" y="28.192124" transform="rotate(-0 36.063906 28.192124)">1.0</text>
     </g>
    </g>
    <g id="text_15">
     <text style="font-size: 10px; font-family: 'DejaVu Sans', 'Segoe UI', 'Helvetica Neue', Arial, 'Noto Sans CJK JP', 'Hiragino Sans', 'Yu Gothic', sans-serif, 'Noto Sans CJK JP'; text-anchor: middle; fill: #c3c2b7" x="13.758438" y="98.965531" transform="rotate(-90 13.758438 98.965531)">ngưỡng τ* trên p̂</text>
    </g>
   </g>
   <g id="line2d_20">
    <path d="M 54.670306 167.069767 
L 56.087141 151.547587 
L 57.503976 139.071427 
L 58.920811 128.824789 
L 60.337645 120.259059 
L 61.75448 112.991977 
L 63.171315 106.749019 
L 64.58815 101.327948 
L 66.004985 96.576485 
L 67.421819 92.377782 
L 68.838654 88.640683 
L 70.255489 85.293031 
L 71.672324 82.276966 
L 73.089158 79.545545 
L 75.922828 74.789356 
L 78.756498 70.788364 
L 81.590167 67.37593 
L 84.423837 64.431085 
L 87.257506 61.863884 
L 90.091176 59.606061 
L 92.924845 57.604868 
L 95.758515 55.818905 
L 100.009019 53.473231 
L 104.259524 51.453407 
L 108.510028 49.695944 
L 112.760532 48.152842 
L 118.427871 46.366134 
L 124.095211 44.829351 
L 131.179385 43.186364 
L 138.263558 41.787899 
L 146.764567 40.361952 
L 155.265576 39.15208 
L 165.183419 37.953456 
L 176.518098 36.80175 
L 189.269611 35.719531 
L 204.854793 34.628484 
L 223.273645 33.582368 
L 244.526167 32.613 
L 270.029193 31.68939 
L 299.782724 30.843778 
L 336.620428 30.034323 
L 380.542306 29.300159 
L 435.798863 28.609779 
L 478.303906 28.198002 
L 478.303906 28.198002 
" clip-path="url(#p987b81bdee)" style="fill: none; stroke: #3987e5; stroke-width: 1.8; stroke-linecap: square"/>
   </g>
   <g id="line2d_21">
    <path d="M 60.462516 214.843875 
L 61.75448 201.590657 
L 63.171315 189.104743 
L 64.58815 178.262601 
L 66.004985 168.759674 
L 67.421819 160.362267 
L 68.838654 152.888069 
L 70.255489 146.192767 
L 71.672324 140.160636 
L 73.089158 134.697794 
L 74.505993 129.727283 
L 75.922828 125.185416 
L 78.756498 117.183431 
L 81.590167 110.358565 
L 84.423837 104.468875 
L 87.257506 99.334472 
L 90.091176 94.818826 
L 92.924845 90.816441 
L 95.758515 87.244515 
L 98.592185 84.037147 
L 101.425854 81.141237 
L 104.259524 78.513518 
L 107.093193 76.118382 
L 111.343698 72.898429 
L 115.594202 70.055875 
L 119.844706 67.528043 
L 124.095211 65.265406 
L 128.345715 63.228312 
L 134.013054 60.808375 
L 139.680393 58.672335 
L 145.347732 56.773004 
L 152.431906 54.675649 
L 159.51608 52.833472 
L 166.600254 51.202575 
L 175.101263 49.476503 
L 185.019106 47.72404 
L 194.93695 46.20046 
L 206.271628 44.685966 
L 219.023141 43.215385 
L 233.191489 41.812759 
L 248.776671 40.493028 
L 267.195524 39.169972 
L 287.031211 37.968559 
L 309.700567 36.814395 
L 336.620428 35.675349 
L 367.790793 34.592391 
L 403.211663 33.5893 
L 445.716706 32.618547 
L 478.303906 32.002708 
L 478.303906 32.002708 
" clip-path="url(#p987b81bdee)" style="fill: none; stroke: #d95926; stroke-width: 1.8; stroke-linecap: square"/>
   </g>
   <g id="line2d_22">
    <defs>
     <path id="m8cbaf73fde" d="M 0 3 
C 0.795609 3 1.55874 2.683901 2.12132 2.12132 
C 2.683901 1.55874 3 0.795609 3 0 
C 3 -0.795609 2.683901 -1.55874 2.12132 -2.12132 
C 1.55874 -2.683901 0.795609 -3 0 -3 
C -0.795609 -3 -1.55874 -2.683901 -2.12132 -2.12132 
C -2.683901 -1.55874 -3 -0.795609 -3 0 
C -3 0.795609 -2.683901 1.55874 -2.12132 2.12132 
C -1.55874 2.683901 -0.795609 3 0 3 
z
" style="stroke: #f2f1ec"/>
    </defs>
    <g clip-path="url(#p987b81bdee)">
     <use xlink:href="#m8cbaf73fde" x="188.143906" y="35.807414" style="fill: #f2f1ec; stroke: #f2f1ec"/>
    </g>
   </g>
   <g id="line2d_23">
    <path d="M 79.333906 176.581531 
L 79.333906 21.349531 
" clip-path="url(#p987b81bdee)" style="fill: none; stroke-dasharray: 1,1.65; stroke-dashoffset: 0; stroke: #5a5955"/>
   </g>
   <g id="line2d_24">
    <path d="M 405.763906 176.581531 
L 405.763906 21.349531 
" clip-path="url(#p987b81bdee)" style="fill: none; stroke-dasharray: 1,1.65; stroke-dashoffset: 0; stroke: #5a5955"/>
   </g>
   <g id="patch_3">
    <path d="M 43.063906 176.581531 
L 43.063906 21.349531 
" style="fill: none; stroke: #5a5955; stroke-width: 0.8; stroke-linejoin: miter; stroke-linecap: square"/>
   </g>
   <g id="patch_4">
    <path d="M 43.063906 176.581531 
L 478.303906 176.581531 
" style="fill: none; stroke: #5a5955; stroke-width: 0.8; stroke-linejoin: miter; stroke-linecap: square"/>
   </g>
   <g id="text_16">
    <text style="font-size: 8px; font-family: 'DejaVu Sans', 'Segoe UI', 'Helvetica Neue', Arial, 'Noto Sans CJK JP', 'Hiragino Sans', 'Yu Gothic', sans-serif, 'Noto Sans CJK JP'; text-anchor: start; fill: #f2f1ec" x="209.905906" y="67.006002" transform="rotate(-0 209.905906 67.006002)">C_w = 20 USD → τ* = 0,925</text>
   </g>
   <g id="text_17">
    <text style="font-size: 7.6px; font-family: 'DejaVu Sans', 'Segoe UI', 'Helvetica Neue', Arial, 'Noto Sans CJK JP', 'Hiragino Sans', 'Yu Gothic', sans-serif, 'Noto Sans CJK JP'; fill: #c3c2b7" transform="translate(85.137106 149.196865)">how_to</text>
    <text style="font-size: 7.6px; font-family: 'DejaVu Sans', 'Segoe UI', 'Helvetica Neue', Arial, 'Noto Sans CJK JP', 'Hiragino Sans', 'Yu Gothic', sans-serif, 'Noto Sans CJK JP'; fill: #c3c2b7" transform="translate(85.137106 158.318943)">(sai nhẹ)</text>
   </g>
   <g id="text_18">
    <text style="font-size: 7.6px; font-family: 'DejaVu Sans', 'Segoe UI', 'Helvetica Neue', Arial, 'Noto Sans CJK JP', 'Hiragino Sans', 'Yu Gothic', sans-serif, 'Noto Sans CJK JP'; fill: #c3c2b7" transform="translate(411.567106 148.892865)">account_access</text>
    <text style="font-size: 7.6px; font-family: 'DejaVu Sans', 'Segoe UI', 'Helvetica Neue', Arial, 'Noto Sans CJK JP', 'Hiragino Sans', 'Yu Gothic', sans-serif, 'Noto Sans CJK JP'; fill: #c3c2b7" transform="translate(411.567106 158.318943)">(sai nghiêm trọng)</text>
   </g>
   <g id="text_19">
    <text style="font-weight: 700; font-size: 9px; font-family: 'DejaVu Sans', 'Segoe UI', 'Helvetica Neue', Arial, 'Noto Sans CJK JP', 'Hiragino Sans', 'Yu Gothic', sans-serif, 'Noto Sans CJK JP'; text-anchor: start; fill: #f2f1ec" x="43.063906" y="13.349531" transform="rotate(-0 43.063906 13.349531)">SEND khi p̂ &gt; τ* = 1 − C_h / C_w: intent càng rủi ro, ngưỡng càng cao</text>
   </g>
   <g id="legend_1">
    <g id="line2d_25">
     <path d="M 302.748656 92.57975 
L 310.348656 92.57975 
L 317.948656 92.57975 
" style="fill: none; stroke: #3987e5; stroke-width: 1.8; stroke-linecap: square"/>
    </g>
    <g id="text_20">
     <text style="font-size: 7.6px; font-family: 'DejaVu Sans', 'Segoe UI', 'Helvetica Neue', Arial, 'Noto Sans CJK JP', 'Hiragino Sans', 'Yu Gothic', sans-serif, 'Noto Sans CJK JP'; text-anchor: start; fill: #f2f1ec" x="324.028656" y="95.23975" transform="rotate(-0 324.028656 95.23975)">C_h = 1,5 USD (chuyển người có draft)</text>
    </g>
    <g id="line2d_26">
     <path d="M 302.748656 104.758156 
L 310.348656 104.758156 
L 317.948656 104.758156 
" style="fill: none; stroke: #d95926; stroke-width: 1.8; stroke-linecap: square"/>
    </g>
    <g id="text_21">
     <text style="font-size: 7.6px; font-family: 'DejaVu Sans', 'Segoe UI', 'Helvetica Neue', Arial, 'Noto Sans CJK JP', 'Hiragino Sans', 'Yu Gothic', sans-serif, 'Noto Sans CJK JP'; text-anchor: start; fill: #f2f1ec" x="324.028656" y="107.418156" transform="rotate(-0 324.028656 107.418156)">C_h = 3 USD (chuyển người có draft)</text>
    </g>
   </g>
  </g>
 </g>
 <defs>
  <clipPath id="p987b81bdee">
   <rect x="43.063906" y="21.349531" width="435.24" height="155.232"/>
  </clipPath>
 </defs>
</svg>
