<?xml version="1.0" encoding="utf-8" standalone="no"?>
<!DOCTYPE svg PUBLIC "-//W3C//DTD SVG 1.1//EN"
  "http://www.w3.org/Graphics/SVG/1.1/DTD/svg11.dtd">
<svg xmlns:xlink="http://www.w3.org/1999/xlink" width="564.865715pt" height="243.013406pt" viewBox="0 0 564.865715 243.013406" xmlns="http://www.w3.org/2000/svg" version="1.1">
 <defs>
  <style type="text/css">*{stroke-linejoin: round; stroke-linecap: butt}</style>
 </defs>
 <g id="figure_1">
  <g id="patch_1">
   <path d="M 0 243.013406 
L 564.865715 243.013406 
L 564.865715 -0 
L 0 -0 
L 0 243.013406 
z
" style="fill: none"/>
  </g>
  <g id="axes_1">
   <g id="patch_2">
    <path d="M 43.527969 205.447937 
L 227.852293 205.447937 
L 227.852293 22.495937 
L 43.527969 22.495937 
L 43.527969 205.447937 
z
" style="fill: none"/>
   </g>
   <g id="matplotlib.axis_1">
    <g id="xtick_1">
     <g id="line2d_1">
      <defs>
       <path id="m8fe2d0f657" d="M 0 0 
L 0 3.5 
" style="stroke: #c3c2b7; stroke-width: 0.8"/>
      </defs>
      <g>
       <use xlink:href="#m8fe2d0f657" x="81.636077" y="205.447937" style="fill: #c3c2b7; stroke: #c3c2b7; stroke-width: 0.8"/>
      </g>
     </g>
     <g id="text_1">
      <text style="font-size: 10px; font-family: 'DejaVu Sans', 'Segoe UI', 'Helvetica Neue', Arial, 'Noto Sans CJK JP', 'Hiragino Sans', 'Yu Gothic', sans-serif, 'Noto Sans CJK JP'; fill: #c3c2b7" transform="translate(42.172014 221.447352)">d₁ «không đăng</text>
      <text style="font-size: 10px; font-family: 'DejaVu Sans', 'Segoe UI', 'Helvetica Neue', Arial, 'Noto Sans CJK JP', 'Hiragino Sans', 'Yu Gothic', sans-serif, 'Noto Sans CJK JP'; fill: #c3c2b7" transform="translate(52.260296 233.850086)">nhập được»</text>
     </g>
    </g>
    <g id="xtick_2">
     <g id="line2d_2">
      <g>
       <use xlink:href="#m8fe2d0f657" x="189.744185" y="205.447937" style="fill: #c3c2b7; stroke: #c3c2b7; stroke-width: 0.8"/>
      </g>
     </g>
     <g id="text_2">
      <text style="font-size: 10px; font-family: 'DejaVu Sans', 'Segoe UI', 'Helvetica Neue', Arial, 'Noto Sans CJK JP', 'Hiragino Sans', 'Yu Gothic', sans-serif, 'Noto Sans CJK JP'; fill: #c3c2b7" transform="translate(146.465279 221.047352)">d₂ «sign-in error»</text>
      <text style="font-size: 10px; font-family: 'DejaVu Sans', 'Segoe UI', 'Helvetica Neue', Arial, 'Noto Sans CJK JP', 'Hiragino Sans', 'Yu Gothic', sans-serif, 'Noto Sans CJK JP'; fill: #c3c2b7" transform="translate(163.940279 233.450086)">(bài đúng)</text>
     </g>
    </g>
   </g>
   <g id="matplotlib.axis_2">
    <g id="ytick_1">
     <g id="line2d_3">
      <path d="M 43.527969 205.447937 
L 227.852293 205.447937 
" clip-path="url(#p9fdbe597c9)" style="fill: none; stroke: #3a3a38; stroke-width: 0.8; stroke-linecap: square"/>
     </g>
     <g id="line2d_4">
      <defs>
       <path id="m8de909ed9e" d="M 0 0 
L -3.5 0 
" style="stroke: #c3c2b7; stroke-width: 0.8"/>
      </defs>
      <g>
       <use xlink:href="#m8de909ed9e" x="43.527969" y="205.447937" style="fill: #c3c2b7; stroke: #c3c2b7; stroke-width: 0.8"/>
      </g>
     </g>
     <g id="text_3">
      <text style="font-size: 10px; font-family: 'DejaVu Sans', 'Segoe UI', 'Helvetica Neue', Arial, 'Noto Sans CJK JP', 'Hiragino Sans', 'Yu Gothic', sans-serif, 'Noto Sans CJK JP'; text-anchor: end; fill: #c3c2b7" x="36.527969" y="209.246766" transform="rotate(-0 36.527969 209.246766)">0.0</text>
     </g>
    </g>
    <g id="ytick_2">
     <g id="line2d_5">
      <path d="M 43.527969 168.857537 
L 227.852293 168.857537 
" clip-path="url(#p9fdbe597c9)" style="fill: none; stroke: #3a3a38; stroke-width: 0.8; stroke-linecap: square"/>
     </g>
     <g id="line2d_6">
      <g>
       <use xlink:href="#m8de909ed9e" x="43.527969" y="168.857537" style="fill: #c3c2b7; stroke: #c3c2b7; stroke-width: 0.8"/>
      </g>
     </g>
     <g id="text_4">
      <text style="font-size: 10px; font-family: 'DejaVu Sans', 'Segoe UI', 'Helvetica Neue', Arial, 'Noto Sans CJK JP', 'Hiragino Sans', 'Yu Gothic', sans-serif, 'Noto Sans CJK JP'; text-anchor: end; fill: #c3c2b7" x="36.527969" y="172.656366" transform="rotate(-0 36.527969 172.656366)">0.2</text>
     </g>
    </g>
    <g id="ytick_3">
     <g id="line2d_7">
      <path d="M 43.527969 132.267137 
L 227.852293 132.267137 
" clip-path="url(#p9fdbe597c9)" style="fill: none; stroke: #3a3a38; stroke-width: 0.8; stroke-linecap: square"/>
     </g>
     <g id="line2d_8">
      <g>
       <use xlink:href="#m8de909ed9e" x="43.527969" y="132.267137" style="fill: #c3c2b7; stroke: #c3c2b7; stroke-width: 0.8"/>
      </g>
     </g>
     <g id="text_5">
      <text style="font-size: 10px; font-family: 'DejaVu Sans', 'Segoe UI', 'Helvetica Neue', Arial, 'Noto Sans CJK JP', 'Hiragino Sans', 'Yu Gothic', sans-serif, 'Noto Sans CJK JP'; text-anchor: end; fill: #c3c2b7" x="36.527969" y="136.065966" transform="rotate(-0 36.527969 136.065966)">0.4</text>
     </g>
    </g>
    <g id="ytick_4">
     <g id="line2d_9">
      <path d="M 43.527969 95.676737 
L 227.852293 95.676737 
" clip-path="url(#p9fdbe597c9)" style="fill: none; stroke: #3a3a38; stroke-width: 0.8; stroke-linecap: square"/>
     </g>
     <g id="line2d_10">
      <g>
       <use xlink:href="#m8de909ed9e" x="43.527969" y="95.676737" style="fill: #c3c2b7; stroke: #c3c2b7; stroke-width: 0.8"/>
      </g>
     </g>
     <g id="text_6">
      <text style="font-size: 10px; font-family: 'DejaVu Sans', 'Segoe UI', 'Helvetica Neue', Arial, 'Noto Sans CJK JP', 'Hiragino Sans', 'Yu Gothic', sans-serif, 'Noto Sans CJK JP'; text-anchor: end; fill: #c3c2b7" x="36.527969" y="99.475566" transform="rotate(-0 36.527969 99.475566)">0.6</text>
     </g>
    </g>
    <g id="ytick_5">
     <g id="line2d_11">
      <path d="M 43.527969 59.086337 
L 227.852293 59.086337 
" clip-path="url(#p9fdbe597c9)" style="fill: none; stroke: #3a3a38; stroke-width: 0.8; stroke-linecap: square"/>
     </g>
     <g id="line2d_12">
      <g>
       <use xlink:href="#m8de909ed9e" x="43.527969" y="59.086337" style="fill: #c3c2b7; stroke: #c3c2b7; stroke-width: 0.8"/>
      </g>
     </g>
     <g id="text_7">
      <text style="font-size: 10px; font-family: 'DejaVu Sans', 'Segoe UI', 'Helvetica Neue', Arial, 'Noto Sans CJK JP', 'Hiragino Sans', 'Yu Gothic', sans-serif, 'Noto Sans CJK JP'; text-anchor: end; fill: #c3c2b7" x="36.527969" y="62.885166" transform="rotate(-0 36.527969 62.885166)">0.8</text>
     </g>
    </g>
    <g id="ytick_6">
     <g id="line2d_13">
      <path d="M 43.527969 22.495937 
L 227.852293 22.495937 
" clip-path="url(#p9fdbe597c9)" style="fill: none; stroke: #3a3a38; stroke-width: 0.8; stroke-linecap: square"/>
     </g>
     <g id="line2d_14">
      <g>
       <use xlink:href="#m8de909ed9e" x="43.527969" y="22.495937" style="fill: #c3c2b7; stroke: #c3c2b7; stroke-width: 0.8"/>
      </g>
     </g>
     <g id="text_8">
      <text style="font-size: 10px; font-family: 'DejaVu Sans', 'Segoe UI', 'Helvetica Neue', Arial, 'Noto Sans CJK JP', 'Hiragino Sans', 'Yu Gothic', sans-serif, 'Noto Sans CJK JP'; text-anchor: end; fill: #c3c2b7" x="36.527969" y="26.294766" transform="rotate(-0 36.527969 26.294766)">1.0</text>
     </g>
    </g>
    <g id="text_9">
     <text style="font-size: 10px; font-family: 'DejaVu Sans', 'Segoe UI', 'Helvetica Neue', Arial, 'Noto Sans CJK JP', 'Hiragino Sans', 'Yu Gothic', sans-serif, 'Noto Sans CJK JP'; text-anchor: middle; fill: #c3c2b7" x="14.2225" y="113.971937" transform="rotate(-90 14.2225 113.971937)">cos(q, d), vector đếm từ</text>
    </g>
   </g>
   <g id="patch_3">
    <path d="M 51.906347 205.447937 
L 111.365807 205.447937 
L 111.365807 83.479937 
L 51.906347 83.479937 
z
" clip-path="url(#p9fdbe597c9)" style="fill: #3987e5"/>
   </g>
   <g id="patch_4">
    <path d="M 160.014455 205.447937 
L 219.473915 205.447937 
L 219.473915 205.447937 
L 160.014455 205.447937 
z
" clip-path="url(#p9fdbe597c9)" style="fill: #d95926"/>
   </g>
   <g id="patch_5">
    <path d="M 43.527969 205.447937 
L 43.527969 22.495937 
" style="fill: none; stroke: #5a5955; stroke-width: 0.8; stroke-linejoin: miter; stroke-linecap: square"/>
   </g>
   <g id="patch_6">
    <path d="M 43.527969 205.447937 
L 227.852293 205.447937 
" style="fill: none; stroke: #5a5955; stroke-width: 0.8; stroke-linejoin: miter; stroke-linecap: square"/>
   </g>
   <g id="text_10">
    <text style="font-size: 9.5px; font-family: 'DejaVu Sans', 'Segoe UI', 'Helvetica Neue', Arial, 'Noto Sans CJK JP', 'Hiragino Sans', 'Yu Gothic', sans-serif, 'Noto Sans CJK JP'; text-anchor: middle; fill: #f2f1ec" x="81.636077" y="77.991377" transform="rotate(-0 81.636077 77.991377)">0.667</text>
   </g>
   <g id="text_11">
    <text style="font-size: 9.5px; font-family: 'DejaVu Sans', 'Segoe UI', 'Helvetica Neue', Arial, 'Noto Sans CJK JP', 'Hiragino Sans', 'Yu Gothic', sans-serif, 'Noto Sans CJK JP'; text-anchor: middle; fill: #f2f1ec" x="189.744185" y="199.959377" transform="rotate(-0 189.744185 199.959377)">0.000</text>
   </g>
   <g id="text_12">
    <text style="font-size: 8.5px; font-family: 'DejaVu Sans', 'Segoe UI', 'Helvetica Neue', Arial, 'Noto Sans CJK JP', 'Hiragino Sans', 'Yu Gothic', sans-serif, 'Noto Sans CJK JP'; fill: #c3c2b7" transform="translate(100.66201 52.203053)">điểm của d₁ chỉ đến từ</text>
    <text style="font-size: 8.5px; font-family: 'DejaVu Sans', 'Segoe UI', 'Helvetica Neue', Arial, 'Noto Sans CJK JP', 'Hiragino Sans', 'Yu Gothic', sans-serif, 'Noto Sans CJK JP'; fill: #c3c2b7" transform="translate(112.084549 62.745377)">«không», «được»</text>
   </g>
   <g id="text_13">
    <text style="font-weight: 700; font-size: 10px; font-family: 'DejaVu Sans', 'Segoe UI', 'Helvetica Neue', Arial, 'Noto Sans CJK JP', 'Hiragino Sans', 'Yu Gothic', sans-serif, 'Noto Sans CJK JP'; text-anchor: start; fill: #f2f1ec" x="43.527969" y="14.495937" transform="rotate(-0 43.527969 14.495937)">Đếm từ: q = «không login được»</text>
   </g>
  </g>
  <g id="axes_2">
   <g id="patch_7">
    <path d="M 276.513915 205.447937 
L 534.567969 205.447937 
L 534.567969 22.495937 
L 276.513915 22.495937 
L 276.513915 205.447937 
z
" style="fill: none"/>
   </g>
   <g id="patch_8">
    <path d="M 447.145575 148.819937 
C 467.397262 148.819937 486.822218 142.853254 501.142324 132.23398 
C 515.462429 121.614706 523.508509 107.209859 523.508509 92.191937 
C 523.508509 77.174016 515.462429 62.769169 501.142324 52.149895 
C 486.822218 41.530621 467.397262 35.563937 447.145575 35.563937 
C 426.893888 35.563937 407.468931 41.530621 393.148826 52.149895 
C 378.828721 62.769169 370.782641 77.174016 370.782641 92.191937 
C 370.782641 107.209859 378.828721 121.614706 393.148826 132.23398 
C 407.468931 142.853254 426.893888 148.819937 447.145575 148.819937 
z
" clip-path="url(#pae7e6d8d17)" style="fill: #1d382d"/>
   </g>
   <g id="matplotlib.axis_3"/>
   <g id="matplotlib.axis_4"/>
   <g id="PathCollection_1">
    <defs>
     <path id="m9b3a4f34dc" d="M 0 3.391165 
C 0.899347 3.391165 1.761981 3.03385 2.397916 2.397916 
C 3.03385 1.761981 3.391165 0.899347 3.391165 0 
C 3.391165 -0.899347 3.03385 -1.761981 2.397916 -2.397916 
C 1.761981 -3.03385 0.899347 -3.391165 0 -3.391165 
C -0.899347 -3.391165 -1.761981 -3.03385 -2.397916 -2.397916 
C -3.03385 -1.761981 -3.391165 -0.899347 -3.391165 0 
C -3.391165 0.899347 -3.03385 1.761981 -2.397916 2.397916 
C -1.761981 3.03385 -0.899347 3.391165 0 3.391165 
z
" style="stroke: #1e1e1c; stroke-width: 1.2"/>
    </defs>
    <g clip-path="url(#pae7e6d8d17)">
     <use xlink:href="#m9b3a4f34dc" x="408.174146" y="59.957537" style="fill: #3987e5; stroke: #1e1e1c; stroke-width: 1.2"/>
    </g>
   </g>
   <g id="text_14">
    <text style="font-size: 8.6px; font-family: 'DejaVu Sans', 'Segoe UI', 'Helvetica Neue', Arial, 'Noto Sans CJK JP', 'Hiragino Sans', 'Yu Gothic', sans-serif, 'Noto Sans CJK JP'; text-anchor: start; fill: #f2f1ec" x="414.493837" y="62.363858" transform="rotate(-0 414.493837 62.363858)">không login được (q)</text>
   </g>
   <g id="PathCollection_2">
    <g clip-path="url(#pae7e6d8d17)">
     <use xlink:href="#m9b3a4f34dc" x="434.506193" y="80.866337" style="fill: #3987e5; stroke: #1e1e1c; stroke-width: 1.2"/>
    </g>
   </g>
   <g id="text_15">
    <text style="font-size: 8.6px; font-family: 'DejaVu Sans', 'Segoe UI', 'Helvetica Neue', Arial, 'Noto Sans CJK JP', 'Hiragino Sans', 'Yu Gothic', sans-serif, 'Noto Sans CJK JP'; text-anchor: start; fill: #f2f1ec" x="440.825884" y="83.272658" transform="rotate(-0 440.825884 83.272658)">không đăng nhập được</text>
   </g>
   <g id="PathCollection_3">
    <defs>
     <path id="m18219ac1bf" d="M 0 3.391165 
C 0.899347 3.391165 1.761981 3.03385 2.397916 2.397916 
C 3.03385 1.761981 3.391165 0.899347 3.391165 0 
C 3.391165 -0.899347 3.03385 -1.761981 2.397916 -2.397916 
C 1.761981 -3.03385 0.899347 -3.391165 0 -3.391165 
C -0.899347 -3.391165 -1.761981 -3.03385 -2.397916 -2.397916 
C -3.03385 -1.761981 -3.391165 -0.899347 -3.391165 0 
C -3.391165 0.899347 -3.03385 1.761981 -2.397916 2.397916 
C -1.761981 3.03385 -0.899347 3.391165 0 3.391165 
z
" style="stroke: #1e1e1c; stroke-width: 1.2"/>
    </defs>
    <g clip-path="url(#pae7e6d8d17)">
     <use xlink:href="#m18219ac1bf" x="450.30542" y="105.259937" style="fill: #d95926; stroke: #1e1e1c; stroke-width: 1.2"/>
    </g>
   </g>
   <g id="text_16">
    <text style="font-size: 8.6px; font-family: 'DejaVu Sans', 'Segoe UI', 'Helvetica Neue', Arial, 'Noto Sans CJK JP', 'Hiragino Sans', 'Yu Gothic', sans-serif, 'Noto Sans CJK JP'; text-anchor: start; fill: #f2f1ec" x="456.625112" y="107.494258" transform="rotate(-0 456.625112 107.494258)">sign-in error</text>
   </g>
   <g id="PathCollection_4">
    <defs>
     <path id="m609cec87df" d="M 0 3.391165 
C 0.899347 3.391165 1.761981 3.03385 2.397916 2.397916 
C 3.03385 1.761981 3.391165 0.899347 3.391165 0 
C 3.391165 -0.899347 3.03385 -1.761981 2.397916 -2.397916 
C 1.761981 -3.03385 0.899347 -3.391165 0 -3.391165 
C -0.899347 -3.391165 -1.761981 -3.03385 -2.397916 -2.397916 
C -3.03385 -1.761981 -3.391165 -0.899347 -3.391165 0 
C -3.391165 0.899347 -3.03385 1.761981 -2.397916 2.397916 
C -1.761981 3.03385 -0.899347 3.391165 0 3.391165 
z
" style="stroke: #1e1e1c; stroke-width: 1.2"/>
    </defs>
    <g clip-path="url(#pae7e6d8d17)">
     <use xlink:href="#m609cec87df" x="429.239783" y="129.653537" style="fill: #199e70; stroke: #1e1e1c; stroke-width: 1.2"/>
    </g>
   </g>
   <g id="text_17">
    <text style="font-size: 8.6px; font-family: 'DejaVu Sans', 'Segoe UI', 'Helvetica Neue', Arial, 'Noto Sans CJK JP', 'Hiragino Sans', 'Yu Gothic', sans-serif, 'Noto Sans CJK JP'; fill: #f2f1ec" transform="translate(435.559475 126.889948)">パスワード再設定後に</text>
    <text style="font-size: 8.6px; font-family: 'DejaVu Sans', 'Segoe UI', 'Helvetica Neue', Arial, 'Noto Sans CJK JP', 'Hiragino Sans', 'Yu Gothic', sans-serif, 'Noto Sans CJK JP'; fill: #f2f1ec" transform="translate(435.559475 137.575112)">サインインできない</text>
   </g>
   <g id="PathCollection_5">
    <defs>
     <path id="med6f3d7389" d="M 0 3.391165 
C 0.899347 3.391165 1.761981 3.03385 2.397916 2.397916 
C 3.03385 1.761981 3.391165 0.899347 3.391165 0 
C 3.391165 -0.899347 3.03385 -1.761981 2.397916 -2.397916 
C 1.761981 -3.03385 0.899347 -3.391165 0 -3.391165 
C -0.899347 -3.391165 -1.761981 -3.03385 -2.397916 -2.397916 
C -3.03385 -1.761981 -3.391165 -0.899347 -3.391165 0 
C -3.391165 0.899347 -3.03385 1.761981 -2.397916 2.397916 
C -1.761981 3.03385 -0.899347 3.391165 0 3.391165 
z
" style="stroke: #1e1e1c; stroke-width: 1.2"/>
    </defs>
    <g clip-path="url(#pae7e6d8d17)">
     <use xlink:href="#med6f3d7389" x="302.845961" y="174.955937" style="fill: #9085e9; stroke: #1e1e1c; stroke-width: 1.2"/>
    </g>
   </g>
   <g id="text_18">
    <text style="font-size: 8.6px; font-family: 'DejaVu Sans', 'Segoe UI', 'Helvetica Neue', Arial, 'Noto Sans CJK JP', 'Hiragino Sans', 'Yu Gothic', sans-serif, 'Noto Sans CJK JP'; text-anchor: start; fill: #f2f1ec" x="309.165652" y="177.561805" transform="rotate(-0 309.165652 177.561805)">xuất hóa đơn PDF</text>
   </g>
   <g id="PathCollection_6">
    <defs>
     <path id="m74a94dbcbb" d="M 0 3.391165 
C 0.899347 3.391165 1.761981 3.03385 2.397916 2.397916 
C 3.03385 1.761981 3.391165 0.899347 3.391165 0 
C 3.391165 -0.899347 3.03385 -1.761981 2.397916 -2.397916 
C 1.761981 -3.03385 0.899347 -3.391165 0 -3.391165 
C -0.899347 -3.391165 -1.761981 -3.03385 -2.397916 -2.397916 
C -3.03385 -1.761981 -3.391165 -0.899347 -3.391165 0 
C -3.391165 0.899347 -3.03385 1.761981 -2.397916 2.397916 
C -1.761981 3.03385 -0.899347 3.391165 0 3.391165 
z
" style="stroke: #1e1e1c; stroke-width: 1.2"/>
    </defs>
    <g clip-path="url(#pae7e6d8d17)">
     <use xlink:href="#m74a94dbcbb" x="302.845961" y="51.245537" style="fill: #d55181; stroke: #1e1e1c; stroke-width: 1.2"/>
    </g>
   </g>
   <g id="text_19">
    <text style="font-size: 8.6px; font-family: 'DejaVu Sans', 'Segoe UI', 'Helvetica Neue', Arial, 'Noto Sans CJK JP', 'Hiragino Sans', 'Yu Gothic', sans-serif, 'Noto Sans CJK JP'; text-anchor: start; fill: #f2f1ec" x="309.165652" y="53.919936" transform="rotate(-0 309.165652 53.919936)">đổi gói Pro</text>
   </g>
   <g id="text_20">
    <text style="font-size: 8.5px; font-family: 'DejaVu Sans', 'Segoe UI', 'Helvetica Neue', Arial, 'Noto Sans CJK JP', 'Hiragino Sans', 'Yu Gothic', sans-serif, 'Noto Sans CJK JP'; text-anchor: middle; fill: #c3c2b7" x="418.706965" y="199.349537" transform="rotate(-0 418.706965 199.349537)">cùng ý nghĩa → gần nhau, dù không trùng chữ hay khác ngôn ngữ</text>
   </g>
   <g id="text_21">
    <text style="font-weight: 700; font-size: 10px; font-family: 'DejaVu Sans', 'Segoe UI', 'Helvetica Neue', Arial, 'Noto Sans CJK JP', 'Hiragino Sans', 'Yu Gothic', sans-serif, 'Noto Sans CJK JP'; text-anchor: start; fill: #f2f1ec" x="276.513915" y="14.495937" transform="rotate(-0 276.513915 14.495937)">Embedding tốt (sơ đồ minh họa)</text>
   </g>
  </g>
 </g>
 <defs>
  <clipPath id="p9fdbe597c9">
   <rect x="43.527969" y="22.495937" width="184.324324" height="182.952"/>
  </clipPath>
  <clipPath id="pae7e6d8d17">
   <rect x="276.513915" y="22.495937" width="258.054054" height="182.952"/>
  </clipPath>
 </defs>
</svg>
